<svg width="1200" height="800" viewBox="0 0 1200 800" fill="none" xmlns="http://www.w3.org/2000/svg">
  <defs>
    <linearGradient id="bg" x1="0" y1="0" x2="1200" y2="800" gradientUnits="userSpaceOnUse">
      <stop stop-color="#6FB6FF"/>
      <stop offset="1" stop-color="#FFD29B"/>
    </linearGradient>
    <linearGradient id="card" x1="0" y1="0" x2="1" y2="1">
      <stop stop-color="white" stop-opacity="0.85"/>
      <stop offset="1" stop-color="white" stop-opacity="0.55"/>
    </linearGradient>
  </defs>
  <rect width="1200" height="800" fill="url(#bg)"/>
  <circle cx="180" cy="130" r="150" fill="white" fill-opacity="0.22"/>
  <circle cx="1040" cy="640" r="210" fill="white" fill-opacity="0.2"/>
  <rect x="110" y="130" width="980" height="540" rx="44" fill="url(#card)"/>
  <rect x="168" y="210" width="420" height="46" rx="23" fill="#DCEBFF"/>
  <rect x="168" y="280" width="300" height="28" rx="14" fill="#EAF3FF"/>
  <rect x="168" y="328" width="520" height="28" rx="14" fill="#EAF3FF"/>
  <rect x="168" y="396" width="240" height="72" rx="24" fill="#2F7EE7"/>
  <rect x="428" y="396" width="220" height="72" rx="24" fill="white"/>
  <circle cx="860" cy="400" r="150" fill="#3C8CF5" fill-opacity="0.16"/>
  <circle cx="860" cy="400" r="114" fill="#3C8CF5" fill-opacity="0.22"/>
  <circle cx="860" cy="400" r="78" fill="#3C8CF5" fill-opacity="0.28"/>
  <path d="M838 403L854 419L888 383" stroke="white" stroke-width="18" stroke-linecap="round" stroke-linejoin="round"/>
</svg>
