<svg xmlns="http://www.w3.org/2000/svg" width="320" height="320" viewBox="0 0 320 320" role="img" aria-label="Worker portrait 06">
  <defs>
    <linearGradient id="bg" x1="0%" y1="0%" x2="100%" y2="100%">
      <stop offset="0%" stop-color="#fde68a"/>
      <stop offset="100%" stop-color="#d97706"/>
    </linearGradient>
  </defs>
  <rect width="320" height="320" rx="40" fill="url(#bg)"/>
  <circle cx="160" cy="120" r="63" fill="#f0c9af"/>
  <path d="M104 117c5-42 29-71 56-71 30 0 56 27 60 70-11-9-28-13-46-13-25 0-47 7-70 14z" fill="#3f3f46"/>
  <path d="M86 280c14-50 44-82 74-82 29 0 59 32 73 82" fill="#ffffff" fill-opacity=".28"/>
  <path d="M136 144c7 6 15 10 24 10s17-4 24-10" stroke="#8b5e3c" stroke-width="6" stroke-linecap="round" fill="none"/>
  <circle cx="138" cy="122" r="6" fill="#111827"/>
  <circle cx="182" cy="122" r="6" fill="#111827"/>
</svg>
