<svg xmlns="http://www.w3.org/2000/svg" width="320" height="320" viewBox="0 0 320 320" role="img" aria-label="Worker portrait 03">
  <defs>
    <linearGradient id="bg" x1="0%" y1="0%" x2="100%" y2="100%">
      <stop offset="0%" stop-color="#bbf7d0"/>
      <stop offset="100%" stop-color="#16a34a"/>
    </linearGradient>
  </defs>
  <rect width="320" height="320" rx="40" fill="url(#bg)"/>
  <circle cx="160" cy="120" r="63" fill="#edc4a0"/>
  <path d="M98 120c0-49 31-80 62-80 34 0 63 31 63 82-12-16-35-27-63-27-26 0-48 8-62 25z" fill="#0f172a"/>
  <path d="M86 279c15-50 43-81 74-81 30 0 58 31 73 81" fill="#ffffff" fill-opacity=".28"/>
  <path d="M136 146c7 6 15 9 24 9s17-3 24-9" stroke="#8b5e3c" stroke-width="6" stroke-linecap="round" fill="none"/>
  <circle cx="137" cy="124" r="6" fill="#111827"/>
  <circle cx="183" cy="124" r="6" fill="#111827"/>
</svg>
