<svg xmlns="http://www.w3.org/2000/svg" width="320" height="320" viewBox="0 0 320 320" role="img" aria-label="Worker portrait 01">
  <defs>
    <linearGradient id="bg" x1="0%" y1="0%" x2="100%" y2="100%">
      <stop offset="0%" stop-color="#fde68a"/>
      <stop offset="100%" stop-color="#f59e0b"/>
    </linearGradient>
  </defs>
  <rect width="320" height="320" rx="40" fill="url(#bg)"/>
  <circle cx="160" cy="118" r="64" fill="#f8d6c1"/>
  <path d="M102 118c8-42 41-66 58-66 31 0 61 26 61 64-14-11-31-16-47-16-21 0-45 8-72 18z" fill="#1f2937"/>
  <path d="M86 278c11-48 43-80 74-80s63 32 74 80" fill="#ffffff" fill-opacity=".35"/>
  <path d="M132 144c7 8 17 12 28 12s21-4 28-12" stroke="#8b5e3c" stroke-width="6" stroke-linecap="round" fill="none"/>
  <circle cx="136" cy="122" r="6" fill="#111827"/>
  <circle cx="184" cy="122" r="6" fill="#111827"/>
</svg>
